<mxfile host="app.diagrams.net" modified="2023-03-27T18:21:19.909Z" agent="Mozilla/5.0 (Windows NT 10.0; Win64; x64) AppleWebKit/537.36 (KHTML, like Gecko) Chrome/111.0.0.0 Safari/537.36 Edg/111.0.1661.51" etag="4YJauzmSX5HxAr837gI5" version="21.1.1" type="github">
  <diagram name="Page-1" id="r5buzMzKelK3-OfjO-O5">
    <mxGraphModel dx="1499" dy="739" grid="1" gridSize="10" guides="1" tooltips="1" connect="1" arrows="1" fold="1" page="1" pageScale="1" pageWidth="850" pageHeight="1100" math="0" shadow="0">
      <root>
        <mxCell id="0" />
        <mxCell id="1" parent="0" />
        <mxCell id="B2wJUV9TSxUPgxPmGDLA-1" value="AZURE FUNCTION" style="whiteSpace=wrap;html=1;aspect=fixed;shadow=0;fillColor=#E4FF8C;" vertex="1" parent="1">
          <mxGeometry x="180" y="140" width="120" height="120" as="geometry" />
        </mxCell>
        <mxCell id="B2wJUV9TSxUPgxPmGDLA-2" value="AZURE STORAGE QUEUE" style="rounded=1;whiteSpace=wrap;html=1;fillColor=#FFFAFD;" vertex="1" parent="1">
          <mxGeometry x="425" y="170" width="410" height="60" as="geometry" />
        </mxCell>
        <mxCell id="B2wJUV9TSxUPgxPmGDLA-4" value="Actor" style="shape=umlActor;verticalLabelPosition=bottom;verticalAlign=top;html=1;outlineConnect=0;" vertex="1" parent="1">
          <mxGeometry x="30" y="170" width="30" height="60" as="geometry" />
        </mxCell>
        <mxCell id="B2wJUV9TSxUPgxPmGDLA-7" value="" style="endArrow=classic;html=1;rounded=0;entryX=0;entryY=0.5;entryDx=0;entryDy=0;" edge="1" parent="1" target="B2wJUV9TSxUPgxPmGDLA-1">
          <mxGeometry width="50" height="50" relative="1" as="geometry">
            <mxPoint x="54" y="200" as="sourcePoint" />
            <mxPoint x="104" y="150" as="targetPoint" />
          </mxGeometry>
        </mxCell>
        <mxCell id="B2wJUV9TSxUPgxPmGDLA-8" value="" style="endArrow=classic;html=1;rounded=0;entryX=0;entryY=0.5;entryDx=0;entryDy=0;" edge="1" parent="1">
          <mxGeometry width="50" height="50" relative="1" as="geometry">
            <mxPoint x="299" y="202" as="sourcePoint" />
            <mxPoint x="425" y="202" as="targetPoint" />
          </mxGeometry>
        </mxCell>
      </root>
    </mxGraphModel>
  </diagram>
</mxfile>
